# xmcd CD database file
#
# Track frame offsets:
#	150
#	20552
#	44080
#	64640
#	85912
#	106112
#	118832
#	135827
#	160125
#	174147
#	193015
#	206905
#	230655
#	262207
#
# Disc length: 3673 seconds
#
# Revision: 0
# Processed by: cddbd v1.5.2PL0 Copyright (c) Steve Scherf et al.
# Submitted via: CDex 1.51
#
DISCID=c30e570e
DTITLE=Snooks Eaglin - The Way It Is
DYEAR=1900
DGENRE=Blues
TTITLE0=Can You Hear Me?
TTITLE1=Boogie Rambler
TTITLE2=Lock Doctor
TTITLE3=Trees
TTITLE4=I Don't Speak Espanol
TTITLE5=A Mother's Love
TTITLE6=Goast Of A Chance
TTITLE7=Express Yourself
TTITLE8=I Done Got Over It
TTITLE9=The Cokin' Kind
TTITLE10=Cubano Mambo
TTITLE11=Looking Back
TTITLE12=I've Been Around The World
TTITLE13=You're A Sweetheart
EXTD=
EXTT0=
EXTT1=
EXTT2=
EXTT3=
EXTT4=
EXTT5=
EXTT6=
EXTT7=
EXTT8=
EXTT9=
EXTT10=
EXTT11=
EXTT12=
EXTT13=
PLAYORDER=
